<?xml version="1.0" standalone="no"?>
<!DOCTYPE svg PUBLIC "-//W3C//DTD SVG 20010904//EN"
 "http://www.w3.org/TR/2001/REC-SVG-20010904/DTD/svg10.dtd">
<svg version="1.0" xmlns="http://www.w3.org/2000/svg"
 width="125.000000pt" height="106.000000pt" viewBox="0 0 125.000000 106.000000"
 preserveAspectRatio="xMidYMid meet">

<g transform="translate(0.000000,106.000000) scale(0.100000,-0.100000)"
fill="#000000" stroke="none">
<path d="M559 834 c-79 -80 -146 -147 -148 -150 -2 -2 2 -4 9 -4 7 0 73 59
146 131 95 94 137 130 149 125 10 -4 13 -11 8 -20 -4 -8 -125 -134 -268 -281
l-260 -266 -57 -114 -58 -115 29 -14 c48 -26 103 -29 192 -12 123 23 161 21
198 -10 43 -36 72 -26 117 36 20 28 41 50 48 50 21 0 56 -31 82 -71 39 -63 88
-47 142 44 30 50 77 71 160 71 55 0 67 3 45 9 -33 9 -124 3 -168 -13 -17 -6
-49 -33 -70 -60 -37 -46 -65 -64 -65 -40 0 16 -61 80 -91 96 -44 22 -64 17
-109 -30 l-43 -45 -28 22 c-41 30 -102 27 -237 -12 -168 -48 -181 -37 -39 34
64 33 120 67 123 77 3 9 120 128 260 265 206 201 254 252 251 270 -3 14 5 30
19 44 32 30 30 49 -9 87 -40 39 -47 39 -77 7 -31 -32 -44 -32 -70 5 -12 17
-25 30 -29 30 -4 0 -72 -66 -152 -146z"/>
</g>
</svg>
